<svg xmlns="http://www.w3.org/2000/svg" width="0" height="0" style="position:absolute" aria-hidden="true">

  <symbol id="arrow-right" viewBox="0 0 24 24" fill="none" stroke="currentColor" stroke-width="2" stroke-linecap="round" stroke-linejoin="round"><path d="M5 12h14"/><path d="m12 5 7 7-7 7"/></symbol>

  <symbol id="award" viewBox="0 0 24 24" fill="none" stroke="currentColor" stroke-width="2" stroke-linecap="round" stroke-linejoin="round"><circle cx="12" cy="8" r="6"/><path d="M15.477 12.89 17 22l-5-3-5 3 1.523-9.11"/></symbol>

  <symbol id="book-half" viewBox="0 0 24 24" fill="none" stroke="currentColor" stroke-width="2" stroke-linecap="round" stroke-linejoin="round"><path d="M2 3h6a4 4 0 0 1 4 4v14a3 3 0 0 0-3-3H2z"/><path d="M22 3h-6a4 4 0 0 0-4 4v14a3 3 0 0 1 3-3h7z"/></symbol>

  <symbol id="bullseye" viewBox="0 0 24 24" fill="none" stroke="currentColor" stroke-width="2"><circle cx="12" cy="12" r="10"/><circle cx="12" cy="12" r="6"/><circle cx="12" cy="12" r="2"/></symbol>

  <symbol id="calendar3" viewBox="0 0 24 24" fill="none" stroke="currentColor" stroke-width="2" stroke-linecap="round" stroke-linejoin="round"><rect x="3" y="4" width="18" height="18" rx="2"/><path d="M16 2v4M8 2v4M3 10h18"/></symbol>

  <symbol id="camera-video-fill" viewBox="0 0 24 24" fill="currentColor"><path d="M2 6a2 2 0 0 1 2-2h10a2 2 0 0 1 2 2v12a2 2 0 0 1-2 2H4a2 2 0 0 1-2-2zM18 8.5l4-2.5v12l-4-2.5z"/></symbol>

  <symbol id="check-lg" viewBox="0 0 24 24" fill="none" stroke="currentColor" stroke-width="2.5" stroke-linecap="round" stroke-linejoin="round"><path d="M20 6 9 17l-5-5"/></symbol>

  <symbol id="code-square" viewBox="0 0 24 24" fill="none" stroke="currentColor" stroke-width="2" stroke-linecap="round" stroke-linejoin="round"><rect x="3" y="3" width="18" height="18" rx="2"/><path d="m10 9-3 3 3 3"/><path d="m14 9 3 3-3 3"/></symbol>

  <symbol id="dice-5-fill" viewBox="0 0 24 24" fill="currentColor"><path d="M3 5a2 2 0 0 1 2-2h14a2 2 0 0 1 2 2v14a2 2 0 0 1-2 2H5a2 2 0 0 1-2-2zm5 3a1.2 1.2 0 1 0 0 2.4A1.2 1.2 0 0 0 8 8zm8 0a1.2 1.2 0 1 0 0 2.4A1.2 1.2 0 0 0 16 8zm-4 3.8a1.2 1.2 0 1 0 0 2.4 1.2 1.2 0 0 0 0-2.4zM8 13.6a1.2 1.2 0 1 0 0 2.4 1.2 1.2 0 0 0 0-2.4zm8 0a1.2 1.2 0 1 0 0 2.4 1.2 1.2 0 0 0 0-2.4z"/></symbol>

  <symbol id="door-closed-fill" viewBox="0 0 24 24" fill="currentColor"><path d="M5 21V4a2 2 0 0 1 2-2h10a2 2 0 0 1 2 2v17h2v2H3v-2zm10-9.5a1 1 0 1 0 0 2 1 1 0 0 0 0-2z"/></symbol>

  <symbol id="envelope-fill" viewBox="0 0 24 24" fill="currentColor"><path d="M2 6a2 2 0 0 1 2-2h16a2 2 0 0 1 2 2v.5l-10 6.25L2 6.5zm0 3.1V18a2 2 0 0 0 2 2h16a2 2 0 0 0 2-2V9.1l-10 6.25z"/></symbol>

  <symbol id="file-earmark-text" viewBox="0 0 24 24" fill="none" stroke="currentColor" stroke-width="2" stroke-linecap="round" stroke-linejoin="round"><path d="M14 3H7a2 2 0 0 0-2 2v14a2 2 0 0 0 2 2h10a2 2 0 0 0 2-2V8z"/><path d="M14 3v5h5"/><path d="M9 13h6M9 17h6"/></symbol>

  <symbol id="file-earmark-text-fill" viewBox="0 0 24 24" fill="currentColor"><path d="M14 3H7a2 2 0 0 0-2 2v14a2 2 0 0 0 2 2h10a2 2 0 0 0 2-2V8h-5zm.5 14h-5a.5.5 0 0 1 0-1h5a.5.5 0 0 1 0 1zm0-4h-5a.5.5 0 0 1 0-1h5a.5.5 0 0 1 0 1z"/><path d="M14 3v5h5z"/></symbol>

  <symbol id="github" viewBox="0 0 24 24" fill="currentColor"><path d="M12 2C6.475 2 2 6.475 2 12a9.99 9.99 0 0 0 6.838 9.488c.5.087.687-.213.687-.476 0-.237-.013-1.024-.013-1.862-2.512.463-3.162-.612-3.362-1.175-.113-.288-.6-1.175-1.025-1.413-.35-.187-.85-.65-.013-.662.788-.013 1.35.725 1.538 1.025.9 1.512 2.337 1.087 2.912.825.088-.65.35-1.087.638-1.337-2.225-.25-4.55-1.113-4.55-4.938 0-1.087.387-1.987 1.025-2.687-.1-.25-.45-1.275.1-2.65 0 0 .837-.262 2.75 1.025a9.28 9.28 0 0 1 2.5-.337c.85 0 1.7.112 2.5.337 1.912-1.3 2.75-1.025 2.75-1.025.55 1.375.2 2.4.1 2.65.637.7 1.025 1.587 1.025 2.687 0 3.838-2.337 4.688-4.562 4.938.362.312.675.912.675 1.85 0 1.337-.013 2.412-.013 2.75 0 .262.188.574.688.474A10.02 10.02 0 0 0 22 12c0-5.525-4.475-10-10-10"/></symbol>

  <symbol id="hand-index-thumb-fill" viewBox="0 0 24 24" fill="currentColor"><path d="M9.5 1.5a1.5 1.5 0 0 1 1.5 1.5v9.5h.5a4 4 0 0 1 4 4v3a3 3 0 0 1-3 3H8a4 4 0 0 1-4-4v-2.05c0-.65-.21-1.27-.6-1.78l-1.05-1.4a1.5 1.5 0 0 1 2.4-1.8l.75 1V3a1.5 1.5 0 0 1 3 0v6.5h.5V3a1.5 1.5 0 0 1 1.5-1.5z"/></symbol>

  <symbol id="info-circle-fill" viewBox="0 0 24 24"><circle cx="12" cy="12" r="10" fill="currentColor"/><path d="M12 11v5M12 8.25v.01" stroke="#fff" stroke-width="2" stroke-linecap="round" fill="none"/></symbol>

  <symbol id="linkedin" viewBox="0 0 24 24" fill="currentColor"><path d="M20.45 20.45h-3.55v-5.57c0-1.33-.02-3.04-1.85-3.04-1.85 0-2.14 1.45-2.14 2.95v5.66H9.36V9h3.41v1.56h.05a3.74 3.74 0 0 1 3.37-1.85c3.6 0 4.27 2.37 4.27 5.46zM5.34 7.43a2.06 2.06 0 1 1 0-4.13 2.06 2.06 0 0 1 0 4.13M7.12 20.45h-3.56V9h3.56zM22.22 0H1.77C.79 0 0 .77 0 1.72v20.56C0 23.23.79 24 1.77 24h20.45c.98 0 1.78-.77 1.78-1.72V1.72C24 .77 23.2 0 22.22 0"/></path></symbol>

  <symbol id="list" viewBox="0 0 24 24" fill="none" stroke="currentColor" stroke-width="2" stroke-linecap="round"><path d="M3 6h18M3 12h18M3 18h18"/></symbol>

  <symbol id="moon-stars-fill" viewBox="0 0 24 24" fill="currentColor"><path d="M9 2a8 8 0 1 0 8 14 6.5 6.5 0 0 1-8-8 8 8 0 0 0 0-6z"/><circle cx="18" cy="6" r="1.2"/><circle cx="20" cy="10" r="0.8"/><circle cx="15" cy="3.5" r="0.7"/></symbol>

  <symbol id="mortarboard" viewBox="0 0 24 24" fill="none" stroke="currentColor" stroke-width="2" stroke-linecap="round" stroke-linejoin="round"><path d="M22 10v6"/><path d="M2 10l10-5 10 5-10 5z"/><path d="M6 12v5c0 1.5 3 3 6 3s6-1.5 6-3v-5"/></symbol>

  <symbol id="mortarboard-fill" viewBox="0 0 24 24" fill="currentColor"><path d="M11.553.064a.5.5 0 0 1 .894 0l10 5a.5.5 0 0 1 0 .894l-10 5a.5.5 0 0 1-.894 0l-10-5a.5.5 0 0 1 0-.894z"/><path d="M5 12.027v3.974q0 .12.054.21c.226.376 1.475 2.087 6.946 2.087s6.72-1.711 6.946-2.087a.4.4 0 0 0 .054-.21v-3.974l-6.776 3.388a1.5 1.5 0 0 1-1.342 0z"/><path d="M21 12v6h2v-6z"/></symbol>

  <symbol id="people-fill" viewBox="0 0 24 24" fill="currentColor"><circle cx="9" cy="7" r="4"/><path d="M2 21v-2a4 4 0 0 1 4-4h6a4 4 0 0 1 4 4v2z"/><circle cx="17" cy="7" r="3"/><path d="M22 21v-2a4 4 0 0 0-3-3.87v1.05a3 3 0 0 1 1 2.32V21z"/></symbol>

  <symbol id="person-badge" viewBox="0 0 24 24" fill="none" stroke="currentColor" stroke-width="2" stroke-linecap="round" stroke-linejoin="round"><rect x="4" y="3" width="16" height="18" rx="2"/><circle cx="12" cy="10" r="2.5"/><path d="M8 16c0-1.5 2-2.5 4-2.5s4 1 4 2.5"/><path d="M9 6h6"/></symbol>

  <symbol id="person-history" viewBox="0 0 24 24" fill="none" stroke="currentColor" stroke-width="2" stroke-linecap="round" stroke-linejoin="round"><circle cx="9" cy="6" r="3.5"/><path d="M3 21v-1a4 4 0 0 1 4-4h4"/><circle cx="17" cy="17" r="5"/><path d="M17 14v3l2 1.5"/></symbol>

  <symbol id="puzzle-fill" viewBox="0 0 24 24" fill="currentColor"><path d="M14 3a2 2 0 0 0-4 0v1a1 1 0 0 1-1 1H5a2 2 0 0 0-2 2v3a1 1 0 0 0 1 1h1a2 2 0 0 1 0 4H4a1 1 0 0 0-1 1v3a2 2 0 0 0 2 2h3a1 1 0 0 0 1-1v-1a2 2 0 0 1 4 0v1a1 1 0 0 0 1 1h3a2 2 0 0 0 2-2v-3a1 1 0 0 0-1-1h-1a2 2 0 0 1 0-4h1a1 1 0 0 0 1-1V7a2 2 0 0 0-2-2h-3a1 1 0 0 1-1-1z"/></symbol>

  <symbol id="star-fill" viewBox="0 0 24 24" fill="currentColor"><path d="M12 .587l3.668 7.568L24 9.423l-6 5.847 1.42 8.276L12 19.771l-7.42 3.775L6 15.27 0 9.423l8.332-1.268z"/></symbol>

  <symbol id="sun-fill" viewBox="0 0 24 24" fill="currentColor" stroke="currentColor" stroke-width="2" stroke-linecap="round"><circle cx="12" cy="12" r="5" stroke="none"/><line x1="12" y1="1" x2="12" y2="4"/><line x1="12" y1="20" x2="12" y2="23"/><line x1="4.22" y1="4.22" x2="6.34" y2="6.34"/><line x1="17.66" y1="17.66" x2="19.78" y2="19.78"/><line x1="1" y1="12" x2="4" y2="12"/><line x1="20" y1="12" x2="23" y2="12"/><line x1="4.22" y1="19.78" x2="6.34" y2="17.66"/><line x1="17.66" y1="6.34" x2="19.78" y2="4.22"/></symbol>

  <symbol id="trophy-fill" viewBox="0 0 24 24" fill="currentColor"><path d="M6 9V4a1 1 0 0 1 1-1h10a1 1 0 0 1 1 1v5a6 6 0 0 1-12 0z"/><path d="M5 6H3a1 1 0 0 0-1 1v2a3 3 0 0 0 3 3M19 6h2a1 1 0 0 1 1 1v2a3 3 0 0 1-3 3" fill="none" stroke="currentColor" stroke-width="2"/><path d="M9 21h6M12 15v6" fill="none" stroke="currentColor" stroke-width="2" stroke-linecap="round"/></symbol>

</svg>
